<svg width="23" height="22" viewBox="0 0 23 22" fill="none" xmlns="http://www.w3.org/2000/svg">
<path d="M20.2984 5.32266H16.9984V3.11214C16.9984 1.89303 16.0117 0.901611 14.7984 0.901611H8.19838C6.98508 0.901611 5.99838 1.89303 5.99838 3.11214V5.32266H2.69838C1.48508 5.32266 0.498383 6.31408 0.498383 7.53319V10.849H22.4984V7.53319C22.4984 6.31408 21.5117 5.32266 20.2984 5.32266ZM8.19838 3.11214H14.7984V5.32266H8.19838V3.11214ZM13.6984 14.1648H9.29838V11.9542H0.498383V19.6911C0.498383 20.9102 1.48508 21.9016 2.69838 21.9016H20.2984C21.5117 21.9016 22.4984 20.9102 22.4984 19.6911V11.9542H13.6984V14.1648Z" fill="white"/>
</svg>
